<?xml version="1.0" encoding="utf-8"?>
<!-- Generator: Adobe Illustrator 19.0.0, SVG Export Plug-In . SVG Version: 6.00 Build 0)  -->
<svg version="1.1" id="图层_1" xmlns="http://www.w3.org/2000/svg" xmlns:xlink="http://www.w3.org/1999/xlink" x="0px" y="0px"
	 viewBox="-35 37 28 28" style="enable-background:new -35 37 28 28;" xml:space="preserve">
<style type="text/css">
	.st0{fill:#BEBFBD;}
	.st1{fill:#979797;}
</style>
<title>333</title>
<desc>Created with Sketch.</desc>
<path id="Shape_1_" class="st0" d="M-13.5,50h1c0.3,0,0.5,0.2,0.5,0.5v1c0,0.3-0.2,0.5-0.5,0.5h-1c-0.3,0-0.5-0.2-0.5-0.5v-1
	C-14,50.2-13.8,50-13.5,50z M-13.5,54h1c0.3,0,0.5,0.2,0.5,0.5v1c0,0.3-0.2,0.5-0.5,0.5h-1c-0.3,0-0.5-0.2-0.5-0.5v-1
	C-14,54.2-13.8,54-13.5,54z M-13.5,58h1c0.3,0,0.5,0.2,0.5,0.5v1c0,0.3-0.2,0.5-0.5,0.5h-1c-0.3,0-0.5-0.2-0.5-0.5v-1
	C-14,58.2-13.8,58-13.5,58z"/>
<path id="Rectangle" class="st0" d="M-30.5,58h1c0.3,0,0.5,0.2,0.5,0.5v1c0,0.3-0.2,0.5-0.5,0.5h-1c-0.3,0-0.5-0.2-0.5-0.5v-1
	C-31,58.2-30.8,58-30.5,58z"/>
<path id="Rectangle_1_" class="st0" d="M-30.5,54h1c0.3,0,0.5,0.2,0.5,0.5v1c0,0.3-0.2,0.5-0.5,0.5h-1c-0.3,0-0.5-0.2-0.5-0.5v-1
	C-31,54.2-30.8,54-30.5,54z"/>
<path id="Rectangle_2_" class="st0" d="M-30.5,50h1c0.3,0,0.5,0.2,0.5,0.5v1c0,0.3-0.2,0.5-0.5,0.5h-1c-0.3,0-0.5-0.2-0.5-0.5v-1
	C-31,50.2-30.8,50-30.5,50z"/>
<path id="Rectangle_3_" class="st0" d="M-30.5,46h1c0.3,0,0.5,0.2,0.5,0.5v1c0,0.3-0.2,0.5-0.5,0.5h-1c-0.3,0-0.5-0.2-0.5-0.5v-1
	C-31,46.2-30.8,46-30.5,46z"/>
<path id="Rectangle_4_" class="st0" d="M-30.5,42h1c0.3,0,0.5,0.2,0.5,0.5v1c0,0.3-0.2,0.5-0.5,0.5h-1c-0.3,0-0.5-0.2-0.5-0.5v-1
	C-31,42.2-30.8,42-30.5,42z"/>
<g>
	<path class="st1" d="M-24.6,47.1C-24.7,47-24.8,47-25,47c-0.6,0-1,0.4-1,1v7.2c0,0.2,0,0.3,0.1,0.4c0.2,0.5,0.8,0.7,1.3,0.4
		l7.2-3.6c0.2-0.1,0.4-0.3,0.4-0.4c0.2-0.5,0-1.1-0.4-1.3L-24.6,47.1z M-24,53.6v-4l4,2L-24,53.6z"/>
	<path class="st1" d="M-10,49c-0.6,0-1,0.4-1,1v12c0,0.6-0.4,1-1,1h-19c-0.6,0-1-0.4-1-1V40c0-0.6,0.4-1,1-1h11v6c0,1,0.9,2,2,2h8
		l0,0l0,0c0.6,0,1-0.5,1-1c0-0.1,0-0.1,0-0.2c0-0.2-0.1-0.4-0.3-0.5c-0.2-0.2-0.7-0.7-0.7-0.7l-7-6.9c-0.4-0.4-1-0.6-1.6-0.7l0,0
		c-0.1,0-0.1,0-0.2,0s-0.2,0-0.3,0H-31c-1.7,0-3,1.3-3,3v22c0,1.7,1.3,3,3,3h19c1.7,0,3-1.3,3-3V50C-9,49.4-9.4,49-10,49z M-12.4,45
		H-18v-5.6L-12.4,45z"/>
</g>
</svg>
